# xmcd CD database file
#
# Track frame offsets:
#	150
#	21750
#	39719
#	56819
#	73928
#	92463
#	108584
#	129721
#	152175
#	169943
#	192167
#	211363
#
# Disc length: 3096 seconds
#
# Revision: 1
# Processed by: cddbd v1.5.2PL0 Copyright (c) Steve Scherf et al.
# Submitted via: CDex 1.51
#
DISCID=af0c160c
DTITLE=Various Artist - Salsa! Salsa! Salsa! [CD3]
DYEAR=2007
DGENRE=Salsa
TTITLE0=Los Titanes - Por Retenerte
TTITLE1=Joe Arroyo - El Mana
TTITLE2=El Tropicombo - Tu Corazon Y El Mio
TTITLE3=The Latin Brothers - La Fabulosa
TTITLE4=Los Brujos Del Son - Por Ti
TTITLE5=Los Nemus - El Mundo El Niño
TTITLE6=Los Bunkers - Esta Sabrosa
TTITLE7=Fruko and Sus Tesos - Negro Candela
TTITLE8=Bad Boys-Salsa - Un Beso Robado
TTITLE9=Los Titanes - Noche A Noche
TTITLE10=Grupo Raza - Amor Del Bueno
TTITLE11=Sonora Carruseles - Tremendo Boogaloo
EXTD=YEAR: 2007
EXTT0=
EXTT1=
EXTT2=
EXTT3=
EXTT4=
EXTT5=
EXTT6=
EXTT7=
EXTT8=
EXTT9=
EXTT10=
EXTT11=
PLAYORDER=
